<svg xmlns="http://www.w3.org/2000/svg" viewBox="0 0 390 370"><defs><style>.cls-1{fill:#f2f2f2;}.cls-2{fill:#ffbe4a;}.cls-3{fill:#ef9900;}.cls-4{fill:#ff2d17;}</style></defs><title>Gabe_Store2</title><g id="Layer_1" data-name="Layer 1"><polygon points="339.94 107.06 339.3 94.17 346.9 100.25 339.94 107.06"/><polygon points="324.83 81.27 335.77 88.15 334.23 78.53 324.83 81.27"/><polygon points="327.92 121.1 337.59 112.55 337.59 122.27 327.92 121.1"/><polygon points="306.77 84.83 318.98 80.62 310.52 75.84 306.77 84.83"/><polygon points="262.65 110.55 273.81 104.05 264.57 101.03 262.65 110.55"/><polygon points="284.97 97.54 296.12 91.03 286.89 88.01 284.97 97.54"/><polygon points="173.38 162.6 184.54 156.1 175.3 153.07 173.38 162.6"/><polygon points="195.7 149.59 206.86 143.08 197.62 140.06 195.7 149.59"/><polygon points="218.01 136.58 229.17 130.07 219.94 127.05 218.01 136.58"/><polygon points="240.33 123.56 251.49 117.06 242.25 114.04 240.33 123.56"/><polygon points="194.53 198.88 205.69 192.37 203.77 201.9 194.53 198.88"/><polygon points="216.85 185.87 228.01 179.36 226.09 188.89 216.85 185.87"/><polygon points="239.17 172.85 250.32 166.35 248.4 175.87 239.17 172.85"/><polygon points="261.48 159.84 272.64 153.33 270.72 162.86 261.48 159.84"/><polygon points="283.8 146.83 294.96 140.32 293.04 149.85 283.8 146.83"/><polygon points="306.12 133.82 317.27 127.31 315.35 136.84 306.12 133.82"/><path class="cls-1" d="M159.8,118.15h170a21,21,0,0,1,21,21v0a21,21,0,0,1-21,21h-170a0,0,0,0,1,0,0v-42A0,0,0,0,1,159.8,118.15Z" transform="translate(-35.33 147.53) rotate(-30.24)"/><path d="M142,159.66,86.38,145l.13,9.34,53.41,14.07a4.59,4.59,0,0,0,3.6-.58,4.46,4.46,0,0,0,2-3.06A4.67,4.67,0,0,0,142,159.66Z"/><path class="cls-2" d="M107.3,164h64a6,6,0,0,1,6,6v79.67a6,6,0,0,1-6,6H67.3a0,0,0,0,1,0,0V204A40,40,0,0,1,107.3,164Z" transform="translate(-89.04 90.16) rotate(-30.24)"/><path d="M223,170.72l-50,29.13a.5.5,0,0,1-.5-.86l50-29.13a.5.5,0,0,1,.5.86Z"/><path d="M201.24,159.09l-36.59,21.34c-.24.14-.88.31-1,.07s.78-1.08,1-1.22l36.09-21a.5.5,0,1,1,.5.86Z"/><circle cx="141.05" cy="164.07" r="7.75" transform="matrix(0.86, -0.5, 0.5, 0.86, -63.44, 93.38)"/><circle class="cls-1" cx="141.05" cy="164.07" r="4.58" transform="translate(-63.44 93.38) rotate(-30.24)"/><path d="M62.5,251.64l15.31-8.93-6-10.37L54.31,242.53a6,6,0,0,0-2.78,3.66l-8.06,30.6a11,11,0,0,0,7.84,13.44L65.51,294a6,6,0,0,0,4.55-.62l27.81-16.22-6-10.37-25.67,15-10.84-2.85Z"/><rect class="cls-3" x="86.89" y="236.48" width="34.33" height="34.33" transform="translate(-113.6 86.94) rotate(-30.24)"/><path d="M144.6,245.76a.5.5,0,0,1-.43-.25l-6.67-11.45a.5.5,0,0,1,.86-.5L145,245a.5.5,0,0,1-.43.75Z"/><path d="M139.92,248.48a.5.5,0,0,1-.43-.25l-6.67-11.45a.5.5,0,0,1,.86-.5l6.67,11.45a.5.5,0,0,1-.43.75Z"/><path d="M135.24,251.21a.5.5,0,0,1-.43-.25l-6.67-11.45a.5.5,0,0,1,.86-.5l6.67,11.45a.5.5,0,0,1-.43.75Z"/><path d="M130.56,253.94a.5.5,0,0,1-.43-.25l-6.67-11.45a.5.5,0,1,1,.86-.5L131,253.19a.5.5,0,0,1-.43.75Z"/><path class="cls-4" d="M259.76,206.64c0-5.54,5.82-14,5.82-14s5.74,8.34,5.72,14.05a5.77,5.77,0,1,1-11.54,0Z"/><path class="cls-4" d="M284,240c0-5.54,5.92-13.91,5.92-13.91s5.63,8.24,5.61,13.95A5.77,5.77,0,1,1,284,240Z"/><circle class="cls-4" cx="258.38" cy="132.6" r="6.54" transform="translate(-31.62 148.19) rotate(-30.24)"/><path class="cls-4" d="M278.22,150.08a19.93,19.93,0,0,0-33.48,19.52Z"/><path class="cls-3" d="M68.13,224l94.09-54.86-.5-.86L67.84,223C67.93,223.31,68,223.64,68.13,224Z"/><path d="M235.25,151.41l-65.65,38.28a.5.5,0,0,1-.5-.86l65.65-38.28a.5.5,0,0,1,.5.86Z"/><path class="cls-3" d="M166.08,175.72,138.6,223.38l13.05,22.39,36.07-21a6,6,0,0,0,2.16-8.21Z"/><path d="M117.55,182.82l-36.06-9.5a3,3,0,0,1-2.14-3.66l-1.14-7,4.63-6.16A2.78,2.78,0,0,1,83,156a3.09,3.09,0,0,1,3.46-1.6l1.94-4.47L86.38,145a9.51,9.51,0,0,0-11.6,6.77l-.49,1.86.43,7.89-4.2,6.37-.5,1.88a9.51,9.51,0,0,0,6.77,11.6l36.06,9.5a3,3,0,0,1,2.14,3.67l-4.24,16.11,1.39,8.28-5.15,6-4.17,15.85a4.5,4.5,0,0,0,8.7,2.3l4.17-15.85-.65-7.51,4.41-6.76,4.88-18.52a9.51,9.51,0,0,0-6.77-11.61Z"/><path class="cls-1" d="M70.51,167.91l8.76,2.31a3,3,0,0,1,.09-.55l3.49-13.17A2.78,2.78,0,0,1,83,156l-8.76-2.31Z"/><polygon points="72.9 158.88 81.6 161.17 81.86 160.2 73.15 157.91 72.9 158.88"/><rect x="75.62" y="159.79" width="1" height="9" transform="translate(-102.14 196.05) rotate(-75.24)"/><rect x="172.52" y="165.21" width="4.1" height="42" transform="translate(-70.03 113.28) rotate(-30.24)"/><path d="M139.08,165.73a.5.5,0,0,1-.25-.93l4-2.31a.5.5,0,0,1,.5.86l-4,2.31A.5.5,0,0,1,139.08,165.73Z"/><rect class="cls-1" x="105.84" y="214.44" width="14.75" height="9" transform="translate(-127.34 272.65) rotate(-75.24)"/><polygon points="109.35 215.93 118.06 218.22 118.31 217.26 109.61 214.96 109.35 215.93"/><rect x="112.08" y="216.84" width="1" height="9" transform="translate(-130.14 273.82) rotate(-75.24)"/><path class="cls-4" d="M305,130.95V85.88l-12.7,7.41v0l-20.87,12.17V127a10.44,10.44,0,0,0,10.44,10.43h0a10.61,10.61,0,0,0,10.52-10.15v14.59L311,130.95Z"/><path class="cls-4" d="M340.77,103.41c0-6.36-1.34-9.57-3-12.37h0a21,21,0,0,0-28.71-7.56l-16.73,9.92v88.72a10.43,10.43,0,0,0,20.84.6v27.16a13.8,13.8,0,0,0,27.59,0Z"/><circle cx="310.76" cy="99.27" r="2.43" transform="translate(-7.7 170.04) rotate(-30.24)"/><circle cx="322.01" cy="92.71" r="2.43" transform="matrix(0.86, -0.5, 0.5, 0.86, -2.87, 174.81)"/><circle cx="317.32" cy="110.52" r="2.43" transform="translate(-12.47 174.88) rotate(-30.24)"/><circle cx="328.56" cy="103.96" r="2.43" transform="translate(-7.64 179.65) rotate(-30.24)"/></g></svg>