<svg xmlns="http://www.w3.org/2000/svg" viewBox="0 0 390 370"><defs><style>.cls-1{fill:#8d1893;}.cls-2{fill:#f24949;}.cls-3{fill:#fff;}.cls-4{fill:#662a66;}.cls-5{fill:#7f0e24;}.cls-6{fill:#ffa92c;}.cls-7{fill:#f69750;}.cls-8{fill:#ffbe4a;}</style></defs><title>Gabe_Store2</title><g id="Layer_1" data-name="Layer 1"><polygon class="cls-1" points="201.16 265.6 106.39 305.73 106.39 67.53 201.16 107.66 201.16 265.6"/><polygon class="cls-1" points="201.16 265.6 106.39 305.73 106.39 67.53 201.16 107.66 201.16 265.6"/><polygon class="cls-1" points="201.16 265.6 106.39 305.73 106.39 67.53 201.16 107.66 201.16 265.6"/><polygon points="201.16 265.6 106.39 305.73 106.39 67.53 201.16 107.66 201.16 265.6"/><polygon class="cls-2" points="86.1 96.38 70.33 92.41 68.21 92.41 68.21 147.92 75.19 127.61 80 162.48 86.78 113.42 92.1 128.03 92.1 96.87 86.1 96.38"/><rect class="cls-3" x="118.56" y="81.77" width="46.86" height="209.72"/><polygon class="cls-4" points="260.19 265.6 165.43 305.73 165.43 67.53 260.19 107.66 260.19 265.6"/><path d="M134.25,125.88a.5.5,0,0,1-.5-.5V92.59a.5.5,0,0,1,1,0v32.8A.5.5,0,0,1,134.25,125.88Z"/><polygon class="cls-4" points="134.25 109.68 52.55 90.02 53.16 87.5 134.25 107.01 134.25 109.68"/><polygon points="60.43 85.7 59.32 90.31 58.21 94.93 44.89 86.84 60.43 85.7"/><polygon points="44.89 86.84 59.32 90.31 60.43 85.7 44.89 86.84"/><path class="cls-5" d="M126.46,217.73h.09a1.33,1.33,0,0,1,1.33,1.33V257.6a0,0,0,0,1,0,0h-2.75a0,0,0,0,1,0,0V219.06A1.33,1.33,0,0,1,126.46,217.73Z"/><path class="cls-2" d="M134.25,251.16H101.52s-5.23-5-5.23-14.56S101.52,222,101.52,222h32.73Z"/><polygon points="249.72 270.04 260.19 265.6 260.19 107.66 249.72 103.22 249.72 270.04"/><polygon class="cls-2" points="165.43 123.48 204.71 84.2 165.43 67.53 165.43 123.48"/><polygon class="cls-2" points="165.43 249.78 204.71 289.06 165.43 305.73 165.43 249.78"/><circle class="cls-6" cx="179.43" cy="283.98" r="3.62"/><circle class="cls-6" cx="179.43" cy="89.28" r="3.62"/><polygon points="165.43 124.22 205.25 84.39 204.22 83.96 165.43 122.75 165.43 124.22"/><polygon points="204.22 289.31 205.25 288.87 165.43 249.05 165.43 250.51 204.22 289.31"/><path class="cls-4" d="M96.12,257.6c-6.43-.23-11.11-5.53-11.6-12-.43-5.69-4.32-9.64-9.64-9.64H68.94a1.73,1.73,0,0,0-1.73,1.73h5.44v1.73H67.21a1.73,1.73,0,0,0,1.73,1.73h5.94a4.46,4.46,0,0,1,4.46,4.46v12a23.3,23.3,0,0,0,23.3,23.3h31.61V257.6Z"/><path d="M134.25,267.08H96.73a.5.5,0,0,1,0-1h37.52a.5.5,0,1,1,0,1Z"/><path d="M134.25,272.43H112.18a.5.5,0,0,1,0-1h22.07a.5.5,0,0,1,0,1Z"/><path d="M134.25,285a.5.5,0,0,1-.5-.5V208.11a.5.5,0,0,1,1,0v76.42A.5.5,0,0,1,134.25,285Z"/><circle class="cls-2" cx="66.18" cy="199.78" r="2.48"/><circle class="cls-7" cx="74.32" cy="180.66" r="1.6"/><circle class="cls-7" cx="86.21" cy="209.15" r="1.6"/><rect x="249.22" y="103.22" width="1" height="166.82"/><path class="cls-2" d="M345.11,86.85l-30-20.43a12.43,12.43,0,0,0-15.78,1.49L281.89,85.34a8.43,8.43,0,0,0,6,14.39h11.44l1.41,1h-7.88a7.86,7.86,0,0,0,0,15.73h25.63c0,22.53-7,23.13-16.58,31.31h0a37.77,37.77,0,0,0-13,21.41A37.77,37.77,0,0,0,251.44,171a44.34,44.34,0,0,0-45.88-18s-11.39,13.83-11.39,40c0,24.69,11.39,40,11.39,40H312a16.32,16.32,0,0,0,16.32-16.32c0-.46,0-.91-.07-1.36a28.52,28.52,0,0,0,16.88-26c0-.06,0-.13,0-.19h0V86.85Z"/><path d="M179.43,288.13a4.14,4.14,0,1,1,4.14-4.14A4.15,4.15,0,0,1,179.43,288.13Zm0-7.25a3.11,3.11,0,1,0,3.11,3.11A3.11,3.11,0,0,0,179.43,280.88Z"/><path d="M179.43,93.42a4.14,4.14,0,1,1,4.14-4.14A4.15,4.15,0,0,1,179.43,93.42Zm0-7.25a3.11,3.11,0,1,0,3.11,3.11A3.11,3.11,0,0,0,179.43,86.17Z"/><path d="M301,100.76a.52.52,0,0,1-.37-.88L311,89.45a13.09,13.09,0,0,0-16.53,1.62.52.52,0,0,1-.73-.73,14.12,14.12,0,0,1,18-1.65l.89.61-11.31,11.31A.52.52,0,0,1,301,100.76Z"/><path d="M310,99.73H292.72v1H310a.52.52,0,0,0,0-1Z"/><path d="M305.17,185.82a.52.52,0,1,0,.93-.46,38.24,38.24,0,0,0-17-17.17c-.08.34-.17.69-.24,1l-.26-.13A37.21,37.21,0,0,1,305.17,185.82Z"/><path d="M333.94,100.78a.52.52,0,0,0-.52.52,15.22,15.22,0,0,1-15,15.2c0,.36,0,.69,0,1a16.26,16.26,0,0,0,16-16.24A.52.52,0,0,0,333.94,100.78Z"/><path d="M328.23,215.42l.14-.07a29.14,29.14,0,0,1-11.83,2.5.52.52,0,0,0,0,1,30.19,30.19,0,0,0,11.75-2.37C328.28,216.15,328.26,215.78,328.23,215.42Z"/><path d="M345.07,190.23c0,.44,0,.88,0,1.31,0-.46,0-.94.05-1.41A.49.49,0,0,0,345.07,190.23Z"/><path d="M256.31,199.61H227.05a.52.52,0,0,1,0-1h29.26a10.37,10.37,0,0,0,10.36-10.36.52.52,0,1,1,1,0A11.41,11.41,0,0,1,256.31,199.61Z"/><path d="M267.18,218.77a.52.52,0,0,1-.52-.52,10.37,10.37,0,0,0-10.36-10.36H240.26a.52.52,0,1,1,0-1h16.05a11.41,11.41,0,0,1,11.39,11.39A.52.52,0,0,1,267.18,218.77Z"/><path d="M273.25,210.71a.51.51,0,0,1-.28-.08c-3.06-2-4.74-4.58-4.74-7.4s1.68-5.44,4.74-7.4a.52.52,0,0,1,.56.87c-2.75,1.76-4.27,4.08-4.27,6.52s1.51,4.76,4.27,6.52a.52.52,0,0,1-.28,1Z"/><path class="cls-8" d="M125.57,175.27a40.85,40.85,0,0,0,23.92,29.15v-75.2A40.92,40.92,0,0,0,125.57,175.27Z"/><path class="cls-7" d="M129.86,146.93l19.62-4.14V129.24A40.87,40.87,0,0,0,129.86,146.93Z"/><path class="cls-7" d="M125.38,159.3a40.78,40.78,0,0,0,.19,16c.17.81.37,1.6.59,2.39l23.33-4.92V154.22Z"/><path class="cls-7" d="M135.8,194.86a41.12,41.12,0,0,0,13.69,9.55V192Z"/><path class="cls-4" d="M115.76,187.64c9.6-.72,21.19-2.25,33.72-4.44h0C137,185.39,125.36,186.93,115.76,187.64Z"/><path class="cls-4" d="M93.29,184.59l-1,.21c.46,2.19,4.8,3.29,12.93,3.29q4.51,0,10.56-.45c9.6-.72,21.19-2.25,33.72-4.44v-1C116.12,188,94.1,188.42,93.29,184.59Z"/><path class="cls-4" d="M93.29,184.59c-.37-1.76,4.6-5.54,19.68-10.89,3.62-1.29,7.6-2.58,11.84-3.87,0-.35-.05-.71-.07-1.06-4.35,1.31-8.42,2.64-12.12,4-14.13,5-21,9.08-20.34,12.08Z"/><path d="M149.94,258.1a.5.5,0,0,1-.5-.5V110a.5.5,0,0,1,1,0V257.6A.5.5,0,0,1,149.94,258.1Z"/></g></svg>