<svg xmlns="http://www.w3.org/2000/svg" viewBox="0 0 390 370"><defs><style>.cls-1{fill:#257e6d;}.cls-2{fill:#013531;}.cls-3{fill:#2e9e88;}.cls-4{fill:#fff;}.cls-5{fill:#052625;}.cls-6{fill:#e51610;}.cls-7{fill:#af020b;}</style></defs><title>Gabe_Store2</title><g id="Layer_1" data-name="Layer 1"><path class="cls-1" d="M371.77,243.08l-17.51-96.54L299,110.27l4.66-18.93a13.27,13.27,0,0,0,6.52,1.72l-6.54-12.79V68.7a27.08,27.08,0,0,0-54.16,0V80.28L243,93.06a13.27,13.27,0,0,0,6.52-1.72l4.66,18.93h0l-57.25,37.59-61-37.59h0l4.66-18.93A13.27,13.27,0,0,0,147,93.06L140.5,80.28V68.7a27.08,27.08,0,0,0-54.16,0V80.28L79.8,93.06a13.27,13.27,0,0,0,6.52-1.72L91,110.27,35.74,146.54,18.23,243.08l37.09,35.71L42.88,370H347.12l-12.43-91.21ZM100.94,103.25a6.54,6.54,0,1,1,6.54-6.54A6.54,6.54,0,0,1,100.94,103.25Zm25,0a6.54,6.54,0,1,1,6.54-6.54A6.54,6.54,0,0,1,125.9,103.25Zm138.2,0a6.54,6.54,0,1,1,6.54-6.54A6.54,6.54,0,0,1,264.1,103.25Zm25,0a6.54,6.54,0,1,1,6.54-6.54A6.54,6.54,0,0,1,289.06,103.25Z"/><polygon class="cls-2" points="298.04 194.93 303.13 192.42 301.03 188.15 295.93 190.66 286.58 171.69 280.45 174.71 301.42 217.25 307.55 214.23 298.04 194.93"/><polygon points="126.6 147.56 144.68 147.56 173.09 128.9 217.96 128.9 246.37 147.56 264.28 147.56 264.54 168.33 126.51 168.33 126.6 147.56"/><polygon points="264.53 147.56 195.53 147.56 126.6 147.56 144.69 244.06 127.53 370 195.53 370 263.53 370 246.36 244.06 264.53 147.56"/><polygon class="cls-2" points="195.53 147.56 126.03 147.56 124.22 150.56 121.53 147.56 144.69 244.06 246.36 244.06 269.53 147.56 267.25 150.56 263.66 147.56 195.53 147.56"/><polygon points="246.37 147.56 217.96 128.9 173.09 128.9 144.68 147.56 157.75 170.68 192.88 186.53 234.88 171.2 246.37 147.56"/><path class="cls-3" d="M217.46,171.2a29.11,29.11,0,0,1-43.86,0H156.17l13.11,52.6h52.49l13.11-52.6Z"/><polygon points="144.69 244.06 246.36 244.06 249.24 232.06 141.81 232.06 144.69 244.06"/><polygon points="159.13 156.34 121.53 156.34 121.53 147.56 151.74 147.56 159.13 156.34"/><polygon points="269.53 156.34 231.92 156.34 239.32 147.56 265.03 147.56 269.53 156.34"/><path d="M222.22,219.3H169.83l-11-43.6h12.77l.15.15a33.61,33.61,0,0,0,47.48,0l.15-.15h9.13v1h-8.71a34.61,34.61,0,0,1-48.6,0H160.15l10.46,41.6h50.83l10.61-42.23,1,.24Z"/><path d="M220.58,138.76c-5.39,14-25.06,21-25.06,21s-19.67-6.95-25.06-21h50.11"/><polygon class="cls-3" points="128.13 156.34 126.03 147.56 121.53 147.56 123.63 156.34 128.13 156.34"/><polygon class="cls-3" points="262.92 156.34 265.03 147.56 269.53 147.56 267.42 156.34 262.92 156.34"/><path class="cls-2" d="M223.07,108.18l-1.54-3-26-1.76-26,1.76-1.54,3,5.1,20.72-2.62,9.86c5.39,14,25.06,21,25.06,21s19.67-6.95,25.06-21L218,128.9Z"/><rect x="168.44" y="87.33" width="54.16" height="15.74"/><path d="M221.68,94.36a27.08,27.08,0,1,0-52.31,0Z"/><path d="M222.61,98.91H168.44l-6.54,12.79a13.28,13.28,0,0,0,10-4.52l.32-.37h46.63l.32.37a13.28,13.28,0,0,0,10,4.52Z"/><rect class="cls-2" x="168.44" y="97.9" width="54.16" height="1"/><path class="cls-2" d="M205.23,90.79h-19.4a.5.5,0,0,1,0-1h19.4a.5.5,0,0,1,0,1Z"/><polygon points="314.57 238.06 269.53 147.56 254.42 210.47 268.94 231.19 268.73 231.16 253.08 263.02 256.52 293.76 314.28 238.15 314.57 238.06"/><path d="M244.76,296.18l-.82,3.69a4.09,4.09,0,1,0,8,1.77l.82-3.69Z"/><path d="M244.74,296.2l-8-1.77h0l-8-1.77-.82,3.69a4.09,4.09,0,0,0,8,1.87,4.09,4.09,0,0,0,8,1.66Z"/><path class="cls-2" d="M213,254.36a1,1,0,0,0-1.19.76l-.79,3.57-.7,3.14-14.16-3.14.85-3.84-9.44-2.09-.85,3.84-24.26-5.38a24.73,24.73,0,0,1-36.25-8l-19.38-4.3-21,46A3,3,0,0,0,89,289l63.73-10,51.43,11.41-.27.06L195,330.38a1,1,0,0,0,.76,1.19l12.2,2.71a1,1,0,0,0,1.19-.76l8.66-40L266,304.19l-29-44.51Z"/><path class="cls-4" d="M351.84,307.51l-16.3-3.62a1,1,0,0,0-1.19.76l-.51,1.15L321.29,303l1.8-8.12,7.61,1.69a1,1,0,0,0,1.19-.76l.64-2.9a1,1,0,0,0-.76-1.19L324.17,290l1.06-4.79a2.49,2.49,0,0,0-4.85-1.08L319.32,289,286,281.58l.63-2.83,1.49-6.71a1,1,0,0,0-.76-1.19L237,259.68l29,44.51,14.24,3.16,1.27-5.72,50.74,11.25,0,1.26a1,1,0,0,0,.76,1.19l16.3,3.62a1,1,0,0,0,1.19-.76l2.1-9.49A1,1,0,0,0,351.84,307.51Zm-68.74-13,1.8-8.12,33.34,7.39-1.8,8.12Z"/><path d="M283.11,294.53l-120.6-26.75a4.14,4.14,0,0,1,1.79-8.08l120.6,26.75-.22,1-120.6-26.75a3.14,3.14,0,0,0-1.36,6.12l120.6,26.75Z"/><path d="M204.37,324.57a2.77,2.77,0,0,1-.6-.07,2.75,2.75,0,0,1-2.09-3.28l6.45-29.28a.5.5,0,1,1,1,.21l-6.45,29.28a1.75,1.75,0,1,0,3.42.76l6.46-29.28a.5.5,0,1,1,1,.21l-6.46,29.28A2.76,2.76,0,0,1,204.37,324.57Z"/><rect x="231.94" y="210.6" width="1" height="111.26" transform="translate(-77.8 435.5) rotate(-77.49)"/><path d="M219.18,287.76h-.11L175,278a.5.5,0,0,1,.22-1l44.05,9.77a.5.5,0,0,1-.11,1Z"/><rect x="209.69" y="247.39" width="1" height="89.92" transform="translate(-120.67 434.39) rotate(-77.52)"/><path d="M166.41,282.15l-6.83-6.57-13.12-12.64a6.2,6.2,0,0,0-8.68.08l-15.65-31.87,14.5-20.68-15.1-62.92-45,90.5,68.2,65.67,0-.21,0,0,15.09-15.09.16.17a4.58,4.58,0,1,0,6.48-6.49Z"/><path class="cls-5" d="M166.75,281.79l-19.95-19.21a6.74,6.74,0,0,0-8.87-.37l-16-32.53a12.6,12.6,0,0,0-19.6-3.94.5.5,0,0,0,.66.75,11.6,11.6,0,0,1,18,3.63l2.95,6h0l8.56,17.42,4.76,9.7h0l.31.63.49-.49a5.72,5.72,0,0,1,8-.08l19.95,19.21a4.08,4.08,0,0,1,.07,5.81,4,4,0,0,1-2.93,1.21,4,4,0,0,1-2.92-1.25l-.52-.53h0L149,277.4a.5.5,0,0,0-.69.72l10.75,10.35-4.34,4.34-6.46-6.17a.5.5,0,0,0-.69.72l6.44,6.15-4.34,4.34-6.43-6.14a.5.5,0,0,0-.69.72l6.41,6.13-4.37,4.37-67.49-65,44.61-89.64-.18-.76s-.61,0-1.19,1.27l-44.3,89-.16.33,68.73,66.18,5.25-5.25.23-.13.12-.22L155,294l.15-.11.08-.13,4.58-4.58a5.08,5.08,0,0,0,7-7.38Z"/><circle cx="207.4" cy="116.35" r="6.54"/><circle cx="182.6" cy="116.35" r="6.54"/><path class="cls-6" d="M207.4,123.39a7,7,0,1,1,7-7A7.05,7.05,0,0,1,207.4,123.39Zm0-13.08a6,6,0,1,0,6,6A6,6,0,0,0,207.4,110.3Z"/><path class="cls-6" d="M182.61,123.39a7,7,0,1,1,7-7A7.05,7.05,0,0,1,182.61,123.39Zm0-13.08a6,6,0,1,0,6,6A6,6,0,0,0,182.61,110.3Z"/><polygon points="263.53 370 254.4 303.02 253.39 303.02 262.52 370 263.53 370"/><path class="cls-7" d="M239.62,335.38l-4,4.24a6.67,6.67,0,0,0,8.79,10L224.7,370h37.82l-7-51.27Z"/><path d="M213.06,128.78h-13c-.22-2.71-2.16-4.83-4.55-4.83s-4.33,2.13-4.55,4.83H178a.5.5,0,1,0,0,1h10.49c.24,4.09,3.31,7.33,7.07,7.33s6.84-3.25,7.07-7.33h10.47a.5.5,0,0,0,0-1Zm-17.54,7.33c-3.21,0-5.84-2.8-6.07-6.33H191c.22,2.71,2.16,4.83,4.55,4.83s4.33-2.13,4.55-4.83h1.52C201.37,133.31,198.74,136.11,195.53,136.11Z"/><polygon points="177.07 231.05 157.02 147.56 144.68 147.56 164.72 231.05 177.07 231.05"/><polygon points="164.97 232.05 166.76 239.54 178.75 238.06 177.31 232.05 164.97 232.05"/><polygon class="cls-2" points="144.45 243.06 144.69 244.06 144.69 244.06 246.36 244.06 246.36 244.06 246.6 243.06 144.45 243.06"/><polygon class="cls-2" points="228.13 172.14 240.47 172.14 240.71 171.14 228.37 171.14 228.13 172.14"/><polygon points="213.75 232.05 211.95 239.54 224.29 239.54 226.09 232.05 213.75 232.05"/><polygon points="240.71 171.14 246.37 147.56 234.03 147.56 228.37 171.14 240.71 171.14"/><polygon points="228.13 172.14 213.99 231.05 226.33 231.05 240.47 172.14 228.13 172.14"/><polygon points="177.07 231.05 157.02 147.56 144.68 147.56 164.72 231.05 177.07 231.05"/><polygon class="cls-2" points="162.76 171.14 150.34 171.14 150.58 172.14 163 172.14 162.76 171.14"/></g></svg>